<svg width="60" height="75" viewBox="0 0 60 75" fill="none" xmlns="http://www.w3.org/2000/svg">
<path d="M16.9219 0.0468772C16.7285 0.0820334 16.5293 0.11719 16.3594 0.234377C15.6738 0.697268 15.5215 1.65821 15.9844 2.34375L19.2188 7.17188C14.2207 9.82031 10.4941 14.2207 9.28125 19.5H50.7188C49.5059 14.2207 45.7793 9.82031 40.7812 7.17188L44.0156 2.34375C44.4785 1.65821 44.3262 0.697268 43.6406 0.234377C42.9492 -0.228514 41.9941 -0.0292948 41.5312 0.656252L37.9688 5.90625C35.4961 5.00391 32.8125 4.5 30 4.5C27.1875 4.5 24.5039 5.00391 22.0312 5.90625L18.4688 0.656252C18.123 0.140627 17.4961 -0.064451 16.9219 0.0468772ZM21.75 12C22.9922 12 24 13.0078 24 14.25C24 15.498 22.9922 16.5 21.75 16.5C20.502 16.5 19.5 15.498 19.5 14.25C19.5 13.0078 20.502 12 21.75 12ZM38.25 12C39.498 12 40.5 13.0078 40.5 14.25C40.5 15.498 39.498 16.5 38.25 16.5C37.0078 16.5 36 15.498 36 14.25C36 13.0078 37.0078 12 38.25 12ZM4.5 22.5C2.01562 22.5 0 24.5156 0 27V48C0 50.4844 2.01562 52.5 4.5 52.5C5.02734 52.5 5.53125 52.3887 6 52.2188V22.7812C5.53125 22.6113 5.02734 22.5 4.5 22.5ZM9 22.5V55.5C9 57.9785 11.0215 60 13.5 60H46.5C48.9785 60 51 57.9785 51 55.5V22.5H9ZM55.5 22.5C54.9727 22.5 54.4688 22.6113 54 22.7812V52.2188C54.4688 52.3828 54.9727 52.5 55.5 52.5C57.9844 52.5 60 50.4844 60 48V27C60 24.5156 57.9844 22.5 55.5 22.5ZM15 63V69C15 72.3105 17.6895 75 21 75C24.3105 75 27 72.3105 27 69V63H15ZM33 63V69C33 72.3105 35.6895 75 39 75C42.3105 75 45 72.3105 45 69V63H33Z" fill="#4BAA5B"/>
</svg>
