<svg width="60" height="70" viewBox="0 0 60 70" fill="none" xmlns="http://www.w3.org/2000/svg">
<path d="M59.2911 51.125C57.6739 54.7168 56.8946 56.3223 54.8145 59.4922C51.9024 63.9219 47.795 69.4531 42.7208 69.4883C38.2032 69.5293 37.0372 66.541 30.9024 66.5938C24.7735 66.623 23.4962 69.5469 18.9727 69.5C13.8927 69.4531 10.0079 64.4727 7.0958 60.0488C-1.04874 47.6445 -1.91006 33.1016 3.12314 25.3672C6.68564 19.8828 12.3165 16.6602 17.6075 16.6602C22.9981 16.6602 26.3849 19.6191 30.838 19.6191C35.1622 19.6191 37.7931 16.6543 44.0274 16.6543C48.7384 16.6543 53.7188 19.2207 57.2813 23.6504C45.6329 30.0371 47.5255 46.6719 59.2911 51.125ZM39.2931 11.7031C41.5606 8.79102 43.2833 4.68359 42.6563 0.5C38.9591 0.751954 34.6349 3.11328 32.1095 6.17188C29.8185 8.96094 27.92 13.0977 28.6583 17.0996C32.6954 17.2285 36.8731 14.8203 39.2931 11.7031Z" fill="black"/>
</svg>
