<svg width="42" height="75" viewBox="0 0 42 75" fill="none" xmlns="http://www.w3.org/2000/svg">
<path fill-rule="evenodd" clip-rule="evenodd" d="M14.1711 39.7829C14.1711 39.7829 12.2068 40.9259 15.5704 41.312C19.6465 41.7774 21.7285 41.7105 26.2189 40.861C26.2189 40.861 27.4011 41.6012 29.0513 42.2416C18.9823 46.5562 6.26335 41.992 14.1711 39.7829ZM12.9402 34.1526C12.9402 34.1526 10.7366 35.7836 14.1032 36.1318C18.4575 36.5814 21.8945 36.6181 27.8456 35.473C27.8456 35.473 28.6673 36.3071 29.9605 36.7628C17.7881 40.323 4.23128 37.0431 12.9402 34.1526Z" fill="#3174B9"/>
<path fill-rule="evenodd" clip-rule="evenodd" d="M23.3119 24.6006C25.7941 27.4578 22.6613 30.0274 22.6613 30.0274C22.6613 30.0274 28.961 26.776 26.0675 22.7029C23.3661 18.9063 21.2939 17.0201 32.5106 10.5156C32.5106 10.5156 14.9033 14.9113 23.3119 24.6006Z" fill="#CA3132"/>
<path fill-rule="evenodd" clip-rule="evenodd" d="M36.6285 43.9478C36.6285 43.9478 38.0825 45.1466 35.0269 46.0737C29.2166 47.8336 10.8392 48.3643 5.73446 46.1437C3.90077 45.345 7.34117 44.2379 8.42355 44.0041C9.55243 43.7601 10.1967 43.8044 10.1967 43.8044C8.15605 42.3675 -2.99326 46.6266 4.53433 47.8485C25.0607 51.1767 41.9521 46.3502 36.6285 43.9478ZM15.1162 28.3184C15.1162 28.3184 5.76944 30.539 11.8068 31.3462C14.3568 31.6871 19.4363 31.6086 24.1716 31.2114C28.0403 30.8867 31.9236 30.1921 31.9236 30.1921C31.9236 30.1921 30.5605 30.7771 29.5728 31.4503C20.0797 33.9474 1.74369 32.7844 7.0229 30.2318C11.4864 28.0726 15.1162 28.3184 15.1162 28.3184ZM31.8847 37.6903C41.534 32.6773 37.0726 27.8589 33.9578 28.5082C33.1962 28.6673 32.8545 28.8047 32.8545 28.8047C32.8545 28.8047 33.1386 28.3602 33.6788 28.169C39.8398 26.0039 44.5772 34.5566 31.6923 37.9437C31.6919 37.9437 31.8404 37.8098 31.8847 37.6903Z" fill="#3174B9"/>
<path fill-rule="evenodd" clip-rule="evenodd" d="M26.0676 0.00970459C26.0676 0.00970459 31.4104 5.35589 20.9987 13.5742C12.649 20.1692 19.0951 23.9283 20.9962 28.2249C16.1214 23.8276 12.5458 19.9558 14.9443 16.3533C18.4658 11.0651 28.2234 8.50063 26.0676 0.00970459Z" fill="#CA3132"/>
<path fill-rule="evenodd" clip-rule="evenodd" d="M16.0654 51.2787C25.3259 51.8708 39.5496 50.9497 39.8871 46.5669C39.8871 46.5669 39.2394 48.2282 32.2328 49.5461C24.3276 51.0342 14.576 50.861 8.79419 49.9066C8.79419 49.9066 9.97896 50.887 16.0654 51.2787Z" fill="#3174B9"/>
<path fill-rule="evenodd" clip-rule="evenodd" d="M39.4592 59.1382H39.1776V58.9803H39.9375V59.1382H39.6559V59.9266H39.4592V59.1382ZM40.9755 59.1774H40.9721L40.6922 59.9262H40.5638L40.2856 59.1774H40.2822V59.9262H40.0953V58.9799H40.3697L40.6273 59.6493L40.885 58.9799H41.1568V59.9262H40.9759L40.9755 59.1774ZM14.5479 68.0229C13.6746 68.7798 12.7513 69.2055 11.9224 69.2055C10.7414 69.2055 10.1006 68.496 10.1006 67.3608C10.1006 66.1316 10.7866 65.2323 13.5325 65.2323H14.5475L14.5479 68.0229ZM16.9584 70.7423V62.3239C16.9584 60.1724 15.7314 58.7525 12.7735 58.7525C11.0477 58.7525 9.53489 59.1787 8.3049 59.7218L8.65901 61.2129C9.6279 60.8571 10.8805 60.5273 12.1101 60.5273C13.8141 60.5273 14.5475 61.2129 14.5475 62.6323V63.6968H13.6959C9.55665 63.6968 7.68884 65.3027 7.68884 67.717C7.68884 69.7973 8.91968 70.9799 11.2367 70.9799C12.7261 70.9799 13.8388 70.3651 14.8777 69.4654L15.0667 70.7423H16.9584ZM25.0035 70.7423H21.9978L18.3787 58.9667H21.0042L23.2504 66.2029L23.7504 68.377C24.8836 65.2323 25.6878 62.0397 26.0901 58.9667H28.6431C27.9596 62.844 26.7284 67.1009 25.0035 70.7423ZM36.5385 68.0229C35.6626 68.7798 34.7393 69.2055 33.9121 69.2055C32.7311 69.2055 32.0912 68.496 32.0912 67.3608C32.0912 66.1316 32.7776 65.2323 35.5218 65.2323H36.5385V68.0229ZM38.9498 70.7423V62.3239C38.9498 60.1724 37.719 58.7525 34.7641 58.7525C33.0366 58.7525 31.5242 59.1787 30.2942 59.7218L30.6483 61.2129C31.6172 60.8571 32.8724 60.5273 34.1024 60.5273C35.8038 60.5273 36.538 61.2129 36.538 62.6323V63.6968H35.6865C31.5468 63.6968 29.6803 65.3027 29.6803 67.717C29.6803 69.7973 30.9086 70.9799 33.226 70.9799C34.7167 70.9799 35.8277 70.3651 36.8691 69.4654L37.0589 70.7423H38.9498ZM5.04582 72.7432C4.35893 73.7471 3.24797 74.5419 2.03334 74.9903L0.843018 73.5884C1.76839 73.1135 2.56108 72.3469 2.93012 71.6335C3.24797 70.9978 3.38066 70.1804 3.38066 68.2238V54.7784H5.94261V68.0383C5.94261 70.6553 5.73356 71.7129 5.04582 72.7432Z" fill="#CA3132"/>
</svg>
